#!OML:ASF I:\salsa\salsa 7_09\Patient 1\Session 1\dancermale.ASF
:FULLY-SPECIFIED
:DEGREES
1123
root 6.00716 16.3975 3.72472 188.641 198.038 538.289
lowerback -3.55339 2.29172 -2.02649
upperback 1.46523 3.2234 -2.09022
thorax 3.51006 1.58098 -0.807785
lowerneck 0.483168 11.9828 7.77262
upperneck 34.8097 19.205 -8.36464
head 13.331 8.62571 -2.34274
rclavicle 2.48481e-014 -1.74931e-014
rhumerus -54.4128 -40.5641 -21.3738
rradius 66.907
rwrist -57.3221
rhand -25.2732 -2.63122
rfingers 7.12502
rthumb 1.24773 -32.6073
lclavicle 2.48481e-014 -1.74931e-014
lhumerus -47.7773 -2.9995 88.7227
lradius 60.3184
lwrist -2.255
lhand -15.1046 57.7213
lfingers 7.12502
lthumb 11.0638 807.41
rfemur -22.5061 12.7104 10.0584
rtibia 62.4986
rfoot -15.0853 13.1554
rtoes 4.95463
lfemur -43.5462 -1.04982 -17.3585
ltibia 41.7145
lfoot -8.32465 3.57946
ltoes -13.1486
1124
root 5.89217 16.3983 3.47459 188.967 196.176 538.335
lowerback -3.31424 2.15106 -1.72286
upperback 1.35708 3.01078 -2.09773
thorax 3.27871 1.48442 -1.01014
lowerneck 0.621391 12.138 7.60478
upperneck 34.6476 19.3412 -8.00761
head 13.1769 8.72607 -2.17076
rclavicle 1.05356e-014 -3.97569e-014
rhumerus -55.4578 -40.4757 -20.393
rradius 66.9197
rwrist -57.8457
rhand -25.1164 -2.23722
rfingers 7.12502
rthumb 1.39918 -32.2124
lclavicle 1.05356e-014 -3.97569e-014
lhumerus -47.8654 -3.24778 88.9536
lradius 61.0353
lwrist -1.70085
lhand -15.4159 57.4957
lfingers 7.12502
lthumb 10.7636 807.2
rfemur -20.368 16.112 10.6653
rtibia 57.7327
rfoot -18.4327 14.7908
rtoes -3.46408
lfemur -44.3168 -1.94592 -16.6527
ltibia 40.3898
lfoot -7.06723 2.49664
ltoes -14.9916
1125
root 5.78344 16.4083 3.20119 189.459 194.246 538.256
lowerback -3.11828 2.05972 -1.15508
upperback 1.25232 2.85665 -2.12064
thorax 3.08765 1.42123 -1.36924
lowerneck 0.688425 12.0335 8.26777
upperneck 34.5345 19.3365 -8.56714
head 13.2681 8.76329 -2.48295
rclavicle 1.66979e-014 -7.95139e-016
rhumerus -56.7672 -40.4233 -19.3638
rradius 67.1852
rwrist -58.7436
rhand -25.1436 -1.59064
rfingers 7.12502
rthumb 1.37288 -31.566
lclavicle 1.66979e-014 -7.95139e-016
lhumerus -47.8239 -3.49788 89.1461
lradius 61.7519
lwrist -0.60424
lhand -15.7651 57.3479
lfingers 7.12502
lthumb 10.4267 807.069
rfemur -18.7858 17.4802 11.7046
rtibia 53.6755
rfoot -23.0283 12.3791
rtoes -18.5768
lfemur -44.8898 -2.54123 -15.8957
ltibia 38.2789
lfoot -5.38705 1.06598
ltoes -16.465
1126
root 5.65211 16.427 2.91647 190.07 192.387 537.999
lowerback -3.09362 2.07133 -0.683966
upperback 1.19573 2.84903 -2.05825
thorax 3.0349 1.42656 -1.57062
lowerneck 0.774362 11.9775 8.60475
upperneck 34.3334 19.274 -8.69201
head 13.2095 8.78638 -2.59297
rclavicle -2.66371e-014 2.94201e-014
rhumerus -58.4331 -40.5243 -18.1623
rradius 67.6394
rwrist -59.2883
rhand -25.117 -1.20809
rfingers 7.12502
rthumb 1.39857 -31.1833
lclavicle -2.66371e-014 2.94201e-014
lhumerus -47.6772 -3.71374 89.3627
lradius 62.3539
lwrist 0.597213
lhand -16.1348 57.1964
lfingers 7.12502
lthumb 10.0701 806.935
rfemur -18.3498 17.5892 13.0497
rtibia 51.3036
rfoot -25.8661 9.03616
rtoes -23.7241
lfemur -45.2487 -2.57033 -14.9121
ltibia 35.4566
lfoot -3.22678 -0.664448
ltoes -16.7372
1127
root 5.54245 16.4661 2.61598 190.68 190.488 537.998
lowerback -2.99733 1.98385 -0.286682
upperback 1.20644 2.71335 -2.008
thorax 3.00443 1.36655 -1.75213
lowerneck 0.729545 12.0971 8.42027
upperneck 34.1042 19.3756 -8.4424
head 13.0723 8.8519 -2.44999
rclavicle -3.97569e-015 5.56597e-015
rhumerus -59.7372 -40.8436 -17.0553
rradius 67.8053
rwrist -58.4169
rhand -24.0081 -1.49952
rfingers 7.12502
rthumb 2.46951 -31.465
lclavicle -3.97569e-015 5.56597e-015
lhumerus -47.3898 -3.50348 89.6813
lradius 62.7709
lwrist 1.35667
lhand -16.6169 57.2093
lfingers 7.12502
lthumb 9.60495 806.97
rfemur -18.399 15.8743 14.1951
rtibia 49.5563
rfoot -27.3543 4.8259
rtoes -24.0678
lfemur -45.3476 -2.55652 -14.4432
ltibia 31.9375
lfoot -0.580105 -2.35834
ltoes -16.6474
1128
root 5.43411 16.5147 2.31099 191.246 188.616 537.772
lowerback -2.91935 1.80099 0.185339
upperback 1.29775 2.44368 -1.74748
thorax 3.05462 1.23943 -1.76461
lowerneck 0.696163 12.2582 8.12237
upperneck 33.7888 19.6085 -8.43093
head 12.9296 8.94042 -2.36394
rclavicle -1.33186e-014 7.95139e-015
rhumerus -60.1814 -40.9565 -16.7452
rradius 68.0994
rwrist -58.8036
rhand -23.8834 -0.947258
rfingers 7.12502
rthumb 2.58996 -30.9113
lclavicle -1.33186e-014 7.95139e-015
lhumerus -47.1641 -2.79217 90.0756
lradius 63.114
lwrist 1.74183
lhand -17.1737 57.3297
lfingers 7.12502
lthumb 9.06778 807.115
rfemur -18.6759 13.1534 15.6242
rtibia 48.0953
rfoot -28.7526 0.29261
rtoes -25.2549
lfemur -45.2259 -2.21804 -13.851
ltibia 27.9733
lfoot 2.35981 -3.59012
ltoes -15.996
